<svg xmlns="http://www.w3.org/2000/svg" width="18" height="24" fill="none" viewBox="3.5 7 29 37"><path fill="#e8dcc8" stroke="#6b8c6f" stroke-linejoin="round" stroke-width="1.3" d="M5 12v25c0 4 6 6 13 6s13-2 13-6V12Z"/><ellipse cx="18" cy="12" fill="#e8dcc8" stroke="#6b8c6f" stroke-width="1.3" rx="13" ry="4"/><ellipse cx="18" cy="12" stroke="#f4ede3" stroke-width=".7" rx="10.5" ry="2.5"/><g transform="translate(6 17)"><circle cx="12" cy="13" r="9" fill="#f4ede3"/><path stroke="#6b8c6f" stroke-linecap="round" stroke-linejoin="round" stroke-width="1.5" d="M4.42 11.247A13.2 13.2 0 0 0 4 14.556C4 18.728 7.582 21 12 21s8-2.272 8-6.444a11.7 11.7 0 0 0-.493-3.309"/><path fill="#f4ede3" stroke="#6b8c6f" stroke-linecap="round" stroke-linejoin="round" stroke-width="1.5" d="M8.5 8.5c-.384 1.05-1.083 2.028-2.344 2.5-1.931.722-3.576-.297-3.656-1-.113-.994 1.177-6.53 4-7 1.923-.321 3.651.845 3.651 2.235A7.5 7.5 0 0 1 14 5.277c0-1.39 1.844-2.598 3.767-2.277 2.823.47 4.113 6.006 4 7-.08.703-1.725 1.722-3.656 1-1.261-.472-1.855-1.45-2.239-2.5"/><path stroke="#6b5d4f" stroke-linecap="round" stroke-linejoin="round" stroke-width="1.5" d="M8 14v.5m8-.5v.5m-4.75 1.75h1.5L12 17z"/></g></svg>