<?xml version="1.0" encoding="UTF-8"?>
<svg id="Layer_1" xmlns="http://www.w3.org/2000/svg" version="1.1" viewBox="0 0 12 12">
  <!-- Generator: Adobe Illustrator 30.1.0, SVG Export Plug-In . SVG Version: 2.1.1 Build 136)  -->
  <defs>
    <style>
      .st0 {
        fill: #969696;
      }
    </style>
  </defs>
  <path class="st0" d="M3.38,1.88v.38h-1.5v8.25h8.25V2.25h-1.5v-.38h-.75v.38h-3.75v-.38h-.75Z"/>
  <path d="M3.38,1.88v.38h-1.5v8.25h8.25V2.25h-1.5v-.38h-.75v.38h-3.75v-.38h-.75ZM2.62,3h.75v.38h.75v-.38h3.75v.38h.75v-.38h.75v.75H2.62v-.75ZM2.62,4.5h6.75v5.25H2.62v-5.25ZM7.61,5.36l-1.98,1.98-.86-.86-.54.54,1.12,1.12.27.26.27-.26,2.25-2.25-.54-.54Z"/>
</svg>