<?xml version="1.0" encoding="UTF-8"?>
<svg id="Layer_1" xmlns="http://www.w3.org/2000/svg" version="1.1" viewBox="0 0 12 12">
  <!-- Generator: Adobe Illustrator 30.1.0, SVG Export Plug-In . SVG Version: 2.1.1 Build 136)  -->
  <defs>
    <style>
      .st0 {
        fill: #969696;
      }
    </style>
  </defs>
  <path class="st0" d="M6,1.5C3.51,1.5,1.5,3.51,1.5,6s2.01,4.5,4.5,4.5,4.5-2.01,4.5-4.5c0-.18-.01-.36-.04-.54-.15.1-.33.16-.53.16-.4,0-.75-.26-.88-.62-.23.15-.51.24-.81.24-.83,0-1.5-.67-1.5-1.5,0-.28.08-.53.21-.75,0,0-.01,0-.02,0-.52,0-.94-.42-.94-.94,0-.21.07-.4.19-.56-.06,0-.12,0-.19,0Z"/>
  <path d="M6,1.5C3.51,1.5,1.5,3.51,1.5,6s2.01,4.5,4.5,4.5,4.5-2.01,4.5-4.5c0-.18-.01-.36-.04-.54-.15.1-.33.16-.53.16-.4,0-.75-.26-.88-.62-.23.15-.51.24-.81.24-.83,0-1.5-.67-1.5-1.5,0-.28.08-.53.21-.75,0,0-.01,0-.02,0-.52,0-.94-.42-.94-.94,0-.21.07-.4.19-.56-.06,0-.12,0-.19,0ZM8.81,1.5c-.31,0-.56.25-.56.56s.25.56.56.56.56-.25.56-.56-.25-.56-.56-.56ZM5.27,2.32c.07.48.36.9.75,1.16-.01.09-.02.18-.02.27,0,1.24,1.01,2.25,2.25,2.25.19,0,.37-.02.55-.07.26.23.58.39.93.43-.18,1.9-1.79,3.39-3.73,3.39-2.07,0-3.75-1.68-3.75-3.75,0-1.82,1.3-3.34,3.02-3.68ZM8.25,3.38c-.21,0-.38.17-.38.38s.17.38.38.38.38-.17.38-.38-.17-.38-.38-.38ZM5.25,3.75c-.21,0-.38.17-.38.38s.17.38.38.38.38-.17.38-.38-.17-.38-.38-.38ZM10.12,3.75c-.21,0-.38.17-.38.38s.17.38.38.38.38-.17.38-.38-.17-.38-.38-.38ZM4.12,4.88c-.41,0-.75.34-.75.75s.34.75.75.75.75-.34.75-.75-.34-.75-.75-.75ZM6,5.63c-.21,0-.38.17-.38.38s.17.38.38.38.38-.17.38-.38-.17-.38-.38-.38ZM4.69,7.13c-.31,0-.56.25-.56.56s.25.56.56.56.56-.25.56-.56-.25-.56-.56-.56ZM7.31,7.5c-.31,0-.56.25-.56.56s.25.56.56.56.56-.25.56-.56-.25-.56-.56-.56Z"/>
</svg>