<?xml version="1.0" encoding="UTF-8"?>
<svg id="Layer_1" xmlns="http://www.w3.org/2000/svg" version="1.1" viewBox="0 0 12 12">
  <!-- Generator: Adobe Illustrator 30.1.0, SVG Export Plug-In . SVG Version: 2.1.1 Build 136)  -->
  <defs>
    <style>
      .st0 {
        fill: #969696;
      }
    </style>
  </defs>
  <path class="st0" d="M4.69,1.88c-.4,0-.75.23-.97.54s-.34.71-.34,1.15.12.84.34,1.15.57.54.97.54.75-.23.97-.54.34-.71.34-1.15-.12-.84-.34-1.15-.57-.54-.97-.54ZM6,3.56c0,.44.12.84.34,1.15s.57.54.97.54.75-.23.97-.54.34-.71.34-1.15-.12-.84-.34-1.15-.57-.54-.97-.54-.75.23-.97.54-.34.71-.34,1.15ZM2.81,4.5c-.4,0-.75.23-.97.54s-.34.71-.34,1.15.12.84.34,1.15.57.54.97.54.75-.23.97-.54.34-.71.34-1.15-.12-.84-.34-1.15-.57-.54-.97-.54ZM9.19,4.5c-.4,0-.75.23-.97.54s-.34.71-.34,1.15.12.84.34,1.15.57.54.97.54.75-.23.97-.54.34-.71.34-1.15-.12-.84-.34-1.15-.57-.54-.97-.54ZM6,6c-.5,0-.85.33-1.02.61s-.28.52-.38.62c-.06.06-.42.19-.8.39-.19.1-.38.23-.54.42s-.27.47-.27.77c0,.72.59,1.31,1.31,1.31.33,0,.66-.1,1-.2s.69-.18.69-.18c0,0,.36.08.69.18s.67.2,1,.2c.72,0,1.31-.59,1.31-1.31,0-.3-.11-.57-.27-.76s-.35-.31-.54-.41c-.38-.2-.74-.36-.8-.41-.09-.09-.19-.33-.36-.62s-.53-.61-1.03-.61Z"/>
  <path d="M4.69,1.88c-.4,0-.75.23-.97.54s-.34.71-.34,1.15.12.84.34,1.15.57.54.97.54.75-.23.97-.54.34-.71.34-1.15-.12-.84-.34-1.15-.57-.54-.97-.54ZM6,3.56c0,.44.12.84.34,1.15s.57.54.97.54.75-.23.97-.54.34-.71.34-1.15-.12-.84-.34-1.15-.57-.54-.97-.54-.75.23-.97.54-.34.71-.34,1.15ZM4.69,2.63c.12,0,.25.06.36.22s.2.42.2.71-.08.55-.2.71-.25.22-.36.22-.25-.06-.36-.22-.2-.42-.2-.71.08-.55.2-.71.25-.22.36-.22ZM7.31,2.63c.12,0,.25.06.36.22s.2.42.2.71-.08.55-.2.71-.25.22-.36.22-.25-.06-.36-.22-.2-.42-.2-.71.08-.55.2-.71.25-.22.36-.22ZM2.81,4.5c-.4,0-.75.23-.97.54s-.34.71-.34,1.15.12.84.34,1.15.57.54.97.54.75-.23.97-.54.34-.71.34-1.15-.12-.84-.34-1.15-.57-.54-.97-.54ZM9.19,4.5c-.4,0-.75.23-.97.54s-.34.71-.34,1.15.12.84.34,1.15.57.54.97.54.75-.23.97-.54.34-.71.34-1.15-.12-.84-.34-1.15-.57-.54-.97-.54ZM2.81,5.25c.12,0,.25.06.36.22s.2.42.2.71-.08.55-.2.71-.25.22-.36.22-.25-.06-.36-.22-.2-.42-.2-.71.08-.55.2-.71.25-.22.36-.22ZM9.19,5.25c.12,0,.25.06.36.22s.2.42.2.71-.08.55-.2.71-.25.22-.36.22-.25-.06-.36-.22-.2-.42-.2-.71.08-.55.2-.71.25-.22.36-.22ZM6,6c-.5,0-.85.33-1.02.61s-.28.52-.38.62c-.06.06-.42.19-.8.39-.19.1-.38.23-.54.42s-.27.47-.27.77c0,.72.59,1.31,1.31,1.31.33,0,.66-.1,1-.2s.69-.18.69-.18c0,0,.36.08.69.18s.67.2,1,.2c.72,0,1.31-.59,1.31-1.31,0-.3-.11-.57-.27-.76s-.35-.31-.54-.41c-.38-.2-.74-.36-.8-.41-.09-.09-.19-.33-.36-.62s-.53-.61-1.03-.61ZM6,6.75c.25,0,.28.06.39.25s.2.5.47.77c.31.31.7.38.98.53.14.08.25.16.32.23s.09.15.09.28c0,.31-.25.56-.56.56-.11,0-.46-.08-.79-.18s-.6-.2-.9-.2-.58.11-.9.2-.68.18-.79.18c-.31,0-.56-.25-.56-.56,0-.15.03-.23.09-.3s.18-.15.32-.22c.28-.14.67-.2.98-.52.28-.28.36-.6.47-.79s.14-.23.39-.23Z"/>
</svg>