<?xml version="1.0" encoding="UTF-8"?>
<svg id="Layer_1" xmlns="http://www.w3.org/2000/svg" version="1.1" viewBox="0 0 12 12">
  <!-- Generator: Adobe Illustrator 30.1.0, SVG Export Plug-In . SVG Version: 2.1.1 Build 136)  -->
  <defs>
    <style>
      .st0 {
        fill: #969696;
      }
    </style>
  </defs>
  <path class="st0" d="M7.92,1.5l-.62.23c-.7.26-1.15.54-1.45.82-.3.28-.44.6-.52.83-.07.24-.1.37-.15.45-.04.06-.12.14-.36.21,0,0-.03-.02-.04-.02h-.01c-.19-.12-.4-.2-.61-.23-.62-.11-1.28.17-1.64.75h-.01c-.22.39-.34.87-.28,1.37.02.15.06.31.12.46-.55.03-1.06.34-1.36.84h-.01c-.46.81-.18,1.85.63,2.31h.01s.54.3,1.29.53c.75.23,1.79.46,3.09.46s2.35-.22,3.09-.45c.74-.23,1.16-.45,1.3-.54h.01c.8-.48,1.07-1.5.61-2.29h.01c-.22-.38-.55-.64-.94-.76,0,0-.01,0-.01,0-.12-.43-.4-.79-.79-1.01.05-.16.08-.35.08-.59,0-.44-.16-.8-.36-1.07s-.46-.44-.67-.61c-.21-.17-.38-.32-.47-.47s-.14-.29-.08-.57l.13-.66Z"/>
  <path d="M7.92,1.5l-.62.23c-.7.26-1.15.54-1.45.82-.3.28-.44.6-.52.83-.07.24-.1.37-.15.45-.04.06-.12.14-.36.21,0,0-.03-.02-.04-.02h-.01c-.19-.12-.4-.2-.61-.23-.62-.11-1.28.17-1.64.75h-.01c-.22.39-.34.87-.28,1.37.02.15.06.31.12.46-.55.03-1.06.34-1.36.84h-.01c-.46.81-.18,1.85.63,2.31h.01s.54.3,1.29.53c.75.23,1.79.46,3.09.46s2.35-.22,3.09-.45c.74-.23,1.16-.45,1.3-.54h.01c.8-.48,1.07-1.5.61-2.29h.01c-.22-.38-.55-.64-.94-.76,0,0-.01,0-.01,0-.12-.43-.4-.79-.79-1.01.05-.16.08-.35.08-.59,0-.44-.16-.8-.36-1.07s-.46-.44-.67-.61c-.21-.17-.38-.32-.47-.47s-.14-.29-.08-.57l.13-.66ZM7.08,2.7c.04.16.09.31.16.43.18.29.41.47.63.64.22.17.42.34.55.5s.2.32.2.6c0,.18-.02.29-.05.38-1.02-.15-1.92-.41-2.58-.66-.13-.05-.25-.1-.36-.15.06-.06.12-.12.16-.19.17-.24.19-.48.25-.66s.12-.31.32-.5c.12-.11.45-.26.71-.4ZM3.87,4.49c.17,0,.34.05.49.15.21.14.65.37,1.38.64.74.28,1.73.57,2.89.73h.01c.26.03.48.19.61.41-.13.02-.27.06-.4.12-.02,0-.04,0-.06.01-.01,0-.02,0-.02.01-.01,0-.02,0-.04.01-.01,0-.02.02-.04.02-.03.01-.08.03-.14.06-.12.05-.3.12-.54.19-.47.14-1.16.28-2.03.28-.65,0-1.2-.07-1.63-.16-.13-.03-.27-.07-.39-.11-.24-.08-.47-.19-.47-.19-.36-.24-.51-.54-.55-.86-.04-.32.05-.65.19-.89.18-.28.44-.43.71-.43ZM2.36,7.1c.18-.01.37.03.54.13,0,0,0,.01.01.01.02.01.05.02.07.04.05.02.1.05.18.08.15.06.36.13.62.21.09.03.21.06.32.08.04.01.08.02.12.04,0,0,0,0,.01,0,.15.04.3.07.45.09h0c.39.05.83.09,1.34.09.95,0,1.71-.16,2.24-.32.27-.08.48-.16.62-.22.05-.02.08-.04.12-.06h.05s.07-.05.07-.05c.47-.25,1.03-.1,1.29.36h0c.26.45.11,1.02-.35,1.28h-.01s-.45.26-1.14.47-1.66.41-2.88.41-2.2-.2-2.88-.41c-.68-.21-1.02-.4-1.15-.47,0,0,0,0-.01-.01-.45-.27-.59-.82-.33-1.28.13-.22.33-.38.55-.45.06-.02.12-.03.18-.04Z"/>
</svg>